{
	"asset": {
		"generator": "Blocks",
		"version": "1.0.2",
		"copyright": "Unknown"
	},
	"buffers": {
		"model": {
			"byteLength": 484720,
			"type": "arraybuffer",
			"uri": "model.bin"
		}
	},
	"accessors": {
		"accessor_position_m0-PolyGem25_-141124": {
			"bufferView": "vec3BufferView",
			"byteOffset": 0,
			"byteStride": 12,
			"componentType": 5126,
			"count": 480,
			"max": [ 0.3385335, 1.586796, -0.160763 ],
			"min": [ -0.1980413, 1.180429, -0.7743401 ],
			"type": "VEC3"
		 },
		"accessor_normal_m0-PolyGem25_-141124": {
			"bufferView": "vec3BufferView",
			"byteOffset": 5760,
			"byteStride": 12,
			"componentType": 5126,
			"count": 480,
			"max": [ 0.9999985, 0.9997147, 0.9997159 ],
			"min": [ -0.9999985, -0.9997147, -0.9997159 ],
			"type": "VEC3"
		 },
		"accessor_color_m0-PolyGem25_-141124": {
			"bufferView": "vec4BufferView",
			"byteOffset": 0,
			"byteStride": 16,
			"componentType": 5126,
			"count": 480,
			"max": [ 1, 1, 1, 1 ],
			"min": [ 1, 1, 1, 1 ],
			"type": "VEC4"
		 },
		"accessor_indices_0_m0-PolyGem25_-141124": {
			"bufferView": "ushortBufferView",
			"byteOffset": 0,
			"byteStride": 0,
			"componentType": 5123,
			"count": 684,
			"max": [ 479 ],
			"min": [ 0 ],
			"type": "SCALAR"
		 },
		"accessor_position_m1-PolyPaper23_-165586": {
			"bufferView": "vec3BufferView",
			"byteOffset": 11520,
			"byteStride": 12,
			"componentType": 5126,
			"count": 9740,
			"max": [ 1.142845, 1.610204, 1.064041 ],
			"min": [ -1.182908, -2.675027, -1.611742 ],
			"type": "VEC3"
		 },
		"accessor_normal_m1-PolyPaper23_-165586": {
			"bufferView": "vec3BufferView",
			"byteOffset": 128400,
			"byteStride": 12,
			"componentType": 5126,
			"count": 9740,
			"max": [ 0.9999587, 0.9999742, 0.9999502 ],
			"min": [ -0.9999588, -0.9999742, -0.9999517 ],
			"type": "VEC3"
		 },
		"accessor_color_m1-PolyPaper23_-165586": {
			"bufferView": "vec4BufferView",
			"byteOffset": 7680,
			"byteStride": 16,
			"componentType": 5126,
			"count": 9740,
			"max": [ 0.9568627, 0.6196079, 0.6196079, 1 ],
			"min": [ 0.1019608, 0.1019608, 0.1019608, 1 ],
			"type": "VEC4"
		 },
		"accessor_indices_0_m1-PolyPaper23_-165586": {
			"bufferView": "ushortBufferView",
			"byteOffset": 1368,
			"byteStride": 0,
			"componentType": 5123,
			"count": 15276,
			"max": [ 9739 ],
			"min": [ 0 ],
			"type": "SCALAR"
		 },
		"accessor_position_m2-PolyPaper23_-165734": {
			"bufferView": "vec3BufferView",
			"byteOffset": 245280,
			"byteStride": 12,
			"componentType": 5126,
			"count": 1022,
			"max": [ 0.2704167, 0.6813366, -0.5888327 ],
			"min": [ 0.1847636, 0.5977476, -0.6483329 ],
			"type": "VEC3"
		 },
		"accessor_normal_m2-PolyPaper23_-165734": {
			"bufferView": "vec3BufferView",
			"byteOffset": 257544,
			"byteStride": 12,
			"componentType": 5126,
			"count": 1022,
			"max": [ 0.9991814, 0.9920065, 0.9921754 ],
			"min": [ -0.9392428, -0.9830698, -0.9886196 ],
			"type": "VEC3"
		 },
		"accessor_color_m2-PolyPaper23_-165734": {
			"bufferView": "vec4BufferView",
			"byteOffset": 163520,
			"byteStride": 16,
			"componentType": 5126,
			"count": 1022,
			"max": [ 0.1019608, 0.1019608, 0.1019608, 1 ],
			"min": [ 0.1019608, 0.1019608, 0.1019608, 1 ],
			"type": "VEC4"
		 },
		"accessor_indices_0_m2-PolyPaper23_-165734": {
			"bufferView": "ushortBufferView",
			"byteOffset": 31920,
			"byteStride": 0,
			"componentType": 5123,
			"count": 1560,
			"max": [ 1021 ],
			"min": [ 0 ],
			"type": "SCALAR"
		 }
	},
	"bufferViews": {
		"ushortBufferView": {
			"buffer": "model",
			"byteLength": 35040,
			"byteOffset": 0,
			"target": 34963
		},
		"vec3BufferView": {
			"buffer": "model",
			"byteLength": 269808,
			"byteOffset": 35040,
			"target": 34962
		},
		"vec4BufferView": {
			"buffer": "model",
			"byteLength": 179872,
			"byteOffset": 304848,
			"target": 34962
		}
	},
	"meshes": {
		"mesh_m0-PolyGem25_-141124": {
			"name": "mesh_m0-PolyGem25_-141124",
			"primitives": [
				{
					"attributes": {
						"POSITION": "accessor_position_m0-PolyGem25_-141124",
						"NORMAL": "accessor_normal_m0-PolyGem25_-141124",
						"COLOR": "accessor_color_m0-PolyGem25_-141124"
					},
					"indices": "accessor_indices_0_m0-PolyGem25_-141124",
					"material": "material_mat25",
					"mode": 4
				}
			]
		},
		"mesh_m1-PolyPaper23_-165586": {
			"name": "mesh_m1-PolyPaper23_-165586",
			"primitives": [
				{
					"attributes": {
						"POSITION": "accessor_position_m1-PolyPaper23_-165586",
						"NORMAL": "accessor_normal_m1-PolyPaper23_-165586",
						"COLOR": "accessor_color_m1-PolyPaper23_-165586"
					},
					"indices": "accessor_indices_0_m1-PolyPaper23_-165586",
					"material": "material_mat23",
					"mode": 4
				}
			]
		},
		"mesh_m2-PolyPaper23_-165734": {
			"name": "mesh_m2-PolyPaper23_-165734",
			"primitives": [
				{
					"attributes": {
						"POSITION": "accessor_position_m2-PolyPaper23_-165734",
						"NORMAL": "accessor_normal_m2-PolyPaper23_-165734",
						"COLOR": "accessor_color_m2-PolyPaper23_-165734"
					},
					"indices": "accessor_indices_0_m2-PolyPaper23_-165734",
					"material": "material_mat23",
					"mode": 4
				}
			]
		}
	},
	"shaders": {
		"vertex_mat25": {
			"type": 35633,
			"uri": "https://vr.google.com/shaders/w/gemVS.glsl"
		},
		"fragment_mat25": {
			"type": 35632,
			"uri": "https://vr.google.com/shaders/w/gemFS.glsl"
		},
		"vertex_mat23": {
			"type": 35633,
			"uri": "https://vr.google.com/shaders/w/vs.glsl"
		},
		"fragment_mat23": {
			"type": 35632,
			"uri": "https://vr.google.com/shaders/w/fs.glsl"
		}
	},
	"programs": {
		"program_mat25": {
			"attributes": [
				"a_position",
				"a_normal",
				"a_color"				
			],
			"vertexShader": "vertex_mat25",
			"fragmentShader": "fragment_mat25"
		},
		"program_mat23": {
			"attributes": [
				"a_position",
				"a_normal",
				"a_color"				
			],
			"vertexShader": "vertex_mat23",
			"fragmentShader": "fragment_mat23"
		}
	},
	"techniques": {
		"technique_mat25": {
			"program": "program_mat25",
			"extras": {"gvrss" : "https://vr.google.com/shaders/w/gvrss/gem.json"},
			"parameters": {
				"position": {
					"type": 35665,
					"semantic": "POSITION"
				},
				"normal": {
					"type": 35665,
					"semantic": "NORMAL"
				},
				"color": {
					"type": 35666,
					"semantic": "COLOR"
				},
				"modelViewMatrix": {
					"type": 35676,
					"semantic": "MODELVIEW"
				},
				"projectionMatrix": {
					"type": 35676,
					"semantic": "PROJECTION"
				},
				"normalMatrix": {
					"type": 35675,
					"semantic": "MODELVIEWINVERSETRANSPOSE"
				},
				"color": {
					"type": 35666
				},
				"roughness": {
					"type": 5126
				},
				"metallic": {
					"type": 5126
				},
				"gem": {
					"type": 35678
				},
				"light0Pos": {
					"type": 35666
				},
				"light0Color": {
					"type": 35666
				},
				"light1Pos": {
					"type": 35666
				},
				"light1Color": {
					"type": 35666
				}				
			},
			"attributes": {
				"a_position": "position",
				"a_normal": "normal",
				"a_color": "color"				
			},
			"uniforms": {
				"u_modelViewMatrix": "modelViewMatrix",
				"u_projectionMatrix": "projectionMatrix",
				"u_normalMatrix": "normalMatrix",
				"u_color": "color",
				"u_roughness": "roughness",
				"u_metallic": "metallic",
				"u_gem": "gem",
				"u_light0Pos": "light0Pos",
				"u_light0Color": "light0Color",
				"u_light1Pos": "light1Pos",
				"u_light1Color": "light1Color"				
			},
			"states": {
				"enable": [
					2929,
					2884
				],
				"functions": {
					"cullFace": [1029]
				}
			}
		},
		"technique_mat23": {
			"program": "program_mat23",
			"extras": {"gvrss" : "https://vr.google.com/shaders/w/gvrss/paper.json"},
			"parameters": {
				"position": {
					"type": 35665,
					"semantic": "POSITION"
				},
				"normal": {
					"type": 35665,
					"semantic": "NORMAL"
				},
				"color": {
					"type": 35666,
					"semantic": "COLOR"
				},
				"modelViewMatrix": {
					"type": 35676,
					"semantic": "MODELVIEW"
				},
				"projectionMatrix": {
					"type": 35676,
					"semantic": "PROJECTION"
				},
				"normalMatrix": {
					"type": 35675,
					"semantic": "MODELVIEWINVERSETRANSPOSE"
				},
				"color": {
					"type": 35666
				},
				"roughness": {
					"type": 5126
				},
				"metallic": {
					"type": 5126
				},
				"light0Pos": {
					"type": 35666
				},
				"light0Color": {
					"type": 35666
				},
				"light1Pos": {
					"type": 35666
				},
				"light1Color": {
					"type": 35666
				}				
			},
			"attributes": {
				"a_position": "position",
				"a_normal": "normal",
				"a_color": "color"				
			},
			"uniforms": {
				"u_modelViewMatrix": "modelViewMatrix",
				"u_projectionMatrix": "projectionMatrix",
				"u_normalMatrix": "normalMatrix",
				"u_color": "color",
				"u_roughness": "roughness",
				"u_metallic": "metallic",
				"u_light0Pos": "light0Pos",
				"u_light0Color": "light0Color",
				"u_light1Pos": "light1Pos",
				"u_light1Color": "light1Color"				
			},
			"states": {
				"enable": [
					2929,
					2884
				],
				"functions": {
					"cullFace": [1029]
				}
			}
		}
	},
	"samplers": {
		"sampler_LINEAR_LINEAR_REPEAT": {
			"magFilter": 9729,
			"minFilter": 9987,
			"wrapS": 10497,
			"wrapT": 10497
		}
	},
	"textures": {
		"texture_mat25_gem": {
			"format": 6408,
			"internalFormat": 6408,
			"sampler": "sampler_LINEAR_LINEAR_REPEAT",
			"source": "image_mat25_gem",
			"target": 3553,
			"type": 5121
		}
	},
	"images": {
		"image_mat25_gem": {
			"uri": "https://vr.google.com/shaders/w/GemRefractions.png"
		}
	},
	"materials": {
		"material_mat25": {
			"technique": "technique_mat25",
			"values": {
				"color": [1, 1, 1, 1],
				"roughness": 0.001,
				"metallic": 0,
				"gem": "texture_mat25_gem",
				"light0Pos": [-0.02, 4.11, -0.54, 0],
				"light0Color": [0.8, 0.8, 0.8, 0],
				"light1Pos": [0.02, -4.11, 0.54, 0],
				"light1Color": [0.64, 0.5647059, 0.5647059, 0]				
			},
			"name": "material_mat25"
		},
		"material_mat23": {
			"technique": "technique_mat23",
			"values": {
				"color": [0.1019608, 0.1019608, 0.1019608, 1],
				"roughness": 0.72,
				"metallic": 0,
				"light0Pos": [-0.02, 4.11, -0.54, 0],
				"light0Color": [0.8, 0.8, 0.8, 0],
				"light1Pos": [0.02, -4.11, 0.54, 0],
				"light1Color": [0.64, 0.5647059, 0.5647059, 0]				
			},
			"name": "material_mat23"
		}
	},
	"nodes": {
		"node_MeshObject1911468800-PolyGem25": {
			"name": "node_MeshObject1911468800-PolyGem25",
			"meshes": [
				"mesh_m0-PolyGem25_-141124"
			],
			"matrix": [1, 0, 0, 0, 0, 1, 0, 0, 0, 0, 1, 0, 0, 0, 0, 1]
		},
		"node_MeshObject-1194554944-PolyPaper23": {
			"name": "node_MeshObject-1194554944-PolyPaper23",
			"meshes": [
				"mesh_m1-PolyPaper23_-165586"
			],
			"matrix": [1, 0, 0, 0, 0, 1, 0, 0, 0, 0, 1, 0, 0, 0, 0, 1]
		},
		"node_MeshObject1071674752-PolyPaper23": {
			"name": "node_MeshObject1071674752-PolyPaper23",
			"meshes": [
				"mesh_m2-PolyPaper23_-165734"
			],
			"matrix": [1, 0, 0, 0, 0, 1, 0, 0, 0, 0, 1, 0, 0, 0, 0, 1]
		}
	},
	"scene": "defaultScene",
	"scenes": {
		"defaultScene": {
			"nodes": [
				"node_MeshObject1911468800-PolyGem25",
				"node_MeshObject-1194554944-PolyPaper23",
				"node_MeshObject1071674752-PolyPaper23"
			],
			"extras": {

			}
		}
	}
}